#!OML:ASF F:\VICON\USERDATA\INSTALL\rory3\rory3.ASF
:FULLY-SPECIFIED
:DEGREES
22
root 0.5659303717553015 17.869083340059852 -7.151071225863433 4.553508775532494 3.9550450310365397 0.5622167316601501
lfemur -8.115299612560884 3.6640314320193834 -21.261430327299824
ltibia 71.11694224948943
lfoot 35.869812619990704 -24.303685346649228
ltoes -9.266864913121681
rfemur -13.477098791308327 11.50629339546916 27.797018759026354
rtibia 26.444778215436717
rfoot 5.570542994616875 -0.4860841731981358
rtoes -2.3318672275537446
lowerback -8.881784189112644e-10 1.3325229149365185 2.592262865056118
upperback -0.03723420089201679 0.8958804006760757 2.2381166067990472
thorax -7.128355763682554 0.4933029174601036 2.1060254825884086
lowerneck -18.61241967098891 -3.783909895981061 -2.1425530083901863
upperneck 7.448051944814361 -3.8174359141199705 3.581314565110016
head 6.627525287654367 -2.209506511439536 0.6245426607424109
lclavicle -2.994289168664422e-07 3.1877182955356764e-07
lhumerus -34.43651807214934 -12.68542369346198 96.06219563567866
lradius 114.65357788931604
lwrist 26.15274362342102
lhand -29.98300863744711 2.9119891904967217
lfingers nan
lthumb -3.073033366464047 33.350636455698805
rclavicle -4.2088956785282165e-07 4.3576921809007323e-07
rhumerus -55.82651188270326 10.444708067144974 -97.07376020855892
rradius 100.14874163563469
rwrist -6.613416637737555
rhand -21.65561805874467 -8.881784189112644e-10
rfingers nan
rthumb 5.546820991330527 7.9846047811516545
23
root 0.5834586214513756 17.82536796353986 -4.973449507594209 4.655496648105 3.1793040551932616 1.4260604737139753
lfemur -9.002045389382197 2.816437389881848 -19.398859245031186
ltibia 82.4585035921277
lfoot 29.03251323151717 -22.615018555115945
ltoes -2.06273189212238
rfemur -8.356811295089093 7.579701570950306 30.857162073107315
rtibia 23.418616297171084
rfoot 10.04848925115761 -0.33350745027216533
rtoes -6.151796109412139
lowerback -8.881784189112644e-10 1.338597088935841 3.3853341403774833
upperback 0.15958506782331805 1.6152812527153289 2.2234271991449135
thorax -7.094664446573988 0.7419177252236182 1.1782172394071901
lowerneck -19.6580682825321 -3.9138507162688274 -2.1917947660339197
upperneck 7.479329055401526 -4.311351828334734 3.593157716764804
head 5.999117658919375 -2.3831740146444673 0.6240076487801645
lclavicle 4.2528264355671326e-07 1.6916148547864418e-07
lhumerus -39.08773620057947 -12.29926308107656 96.86764814886814
lradius 113.44784582684142
lwrist 26.32421402388917
lhand -29.48833666271253 4.427360732492595
lfingers nan
lthumb -3.193294336250037 33.53680367486544
rclavicle 2.2969122965249984e-07 4.469210714471259e-08
rhumerus -56.078998186244576 10.270796965745802 -96.5137319273394
rradius 100.47261869989761
rwrist -6.113364453558151
rhand -21.428754214059257 -8.881784189112644e-10
rfingers nan
rthumb 5.2834532692880884 7.372757691405841
24
root 0.5520336099887763 17.79410464431372 -4.042340549793286 4.259372873482869 3.43458565317283 1.3853522897333295
lfemur -12.434609475166273 2.865049285727471 -18.72325549760479
ltibia 95.02134338884574
lfoot 18.742458196382493 -19.868163055981896
ltoes -0.711337197417282
rfemur -7.649583758442898 6.756959458613533 31.983099942985586
rtibia 17.75330420116388
rfoot 16.544762842481042 -2.5304927506291603
rtoes -7.533423444466987
lowerback -8.881784189112644e-10 1.405652252855083 3.378391772742999
upperback 0.5468641486476902 2.471067417347976 2.197757786704674
thorax -7.705266406873931 1.1870923822262203 0.2870633023599342
lowerneck -19.26608665126223 -3.8416505942141574 -2.0905239703176544
upperneck 7.9248867812988415 -4.803788557163095 3.5314971871458294
head 6.005934700848395 -2.3885965835684995 0.710009789083036
lclavicle -6.992173611432006e-08 1.0256237690391914e-07
lhumerus -43.60615796933548 -12.862883415417436 97.6964037378436
lradius 112.43248764724467
lwrist 26.713947017755366
lhand -29.81584756606737 2.960198269420812
lfingers nan
lthumb -2.823653039706077 33.206580205538444
rclavicle 1.296634326695833e-07 2.81793753906805e-07
rhumerus -56.06960128530479 10.41701029500247 -96.48536678486207
rradius 101.45065773611073
rwrist -9.100126639561134
rhand -21.464739104107213 -8.881784189112644e-10
rfingers nan
rthumb 4.722895459746564 7.001704378316336
25
root 0.5065272984178212 18.120991371643093 -2.144922532827792 4.7923330871957335 3.4263991593836938 0.16162465951813987
lfemur -17.506025640424035 3.1534717256107805 -17.33035586725782
ltibia 100.49527369864627
lfoot 13.88183760606578 -18.15837188041234
ltoes 0.4682556470408823
rfemur -10.286762156845512 6.461672481084637 33.19482425866195
rtibia 11.512194683563173
rfoot 10.060059038921786 -4.8507874676052865
rtoes -3.5060221311924575
lowerback -8.881784189112644e-10 1.2507561890206726 4.364601117571265
upperback 0.5548276517586983 2.7745212888444586 2.6696999563688872
thorax -8.655234022676614 1.3219493312234283 -0.5124845454541477
lowerneck -18.779171903688166 -3.709529455477452 -2.167375160688686
upperneck 7.49068512000353 -5.531492734212017 4.062408946863582
head 6.715037817970443 -2.593751254120561 0.8909601885855141
lclavicle 5.110412292039589e-07 1.3774231656331235e-07
lhumerus -45.56317022653678 -13.880295828245465 98.30796948242775
lradius 111.63410587596127
lwrist 27.265824783520724
lhand -29.190377857223005 3.5864219768412102
lfingers nan
lthumb -2.20498822420313 34.118577678471105
rclavicle 4.2609198275226215e-07 7.835549320243748e-08
rhumerus -54.455941262316784 11.137778005577903 -97.02122434241825
rradius 102.51158570074377
rwrist -10.88348221403334
rhand -21.194643991327826 -8.881784189112644e-10
rfingers nan
rthumb 5.439764120418917 7.566998362176335
26
root 0.4099509289044357 18.300191068877627 -2.0048696290266648 4.366239638859207 2.503089243806267 -0.8153184655540117
lfemur -21.22666654695024 3.545708341956743 -16.668611229643297
ltibia 101.4135385219511
lfoot 12.165657510143378 -15.038233034400982
ltoes 0.36397876627914716
rfemur -8.135017903378863 5.769518805174474 33.57548231867202
rtibia 6.718018493410135
rfoot 6.083849650656601 -4.8538376897156885
rtoes -3.0153631689409206
lowerback -8.881784189112644e-10 1.7118982342738578 4.830291613450217
upperback 0.9819155101172257 3.5265332344083267 2.7271197205509123
thorax -9.126921885803196 1.5460474612835562 -1.1001666951084386
lowerneck -19.398043945419307 -3.818965825385671 -1.9210053741767914
upperneck 7.631143012468778 -6.049123689511019 3.8929578766417614
head 6.750105759808745 -2.788213351237042 0.8367158012146954
lclavicle 2.693687900857052e-07 -6.033671187259139e-09
lhumerus -45.556472862669246 -14.520571611954548 98.67243299760118
lradius 111.56872249928945
lwrist 27.172829582972287
lhand -29.545671075595013 3.3077696680596285
lfingers nan
lthumb -2.679166928673293 33.6228136024145
rclavicle 3.096085475578429e-07 -2.0648527334298892e-07
rhumerus -49.98846660854452 13.069128635311891 -98.66849971940727
rradius 103.3650446311048
rwrist -10.859467645265656
rhand -21.114140632875863 -8.881784189112644e-10
rfingers nan
rthumb 4.915819447662897 6.037447154616329
27
root 0.32323691484828526 18.206544495011364 -0.5182871813605026 4.086741631213708 1.8982478880610028 -1.997430783052504
lfemur -25.231994315854188 4.248332711969787 -16.889077486257722
ltibia 96.90608596204743
lfoot 13.185895629851272 -12.924768790116369
ltoes -3.29430261902759
rfemur -5.714936065439256 4.237164763923598 32.62979734840488
rtibia 5.625662331192487
rfoot -3.2919341632259873 -5.127129246196747
rtoes 3.0706358005244425
lowerback -8.881784189112644e-10 1.330465956278268 3.984675949009935
upperback 0.8321953372922231 3.7569452157509557 2.8730358112345944
thorax -9.029426838138823 1.5715472272215183 -0.989126115862753
lowerneck -19.46555342385467 -3.7828417191953694 -1.8059600639780578
upperneck 7.426933191836282 -6.5865564715307645 3.823650726936397
head 7.12906044946156 -3.105144921159564 0.7226186475441775
lclavicle -2.4897083135688366e-07 -9.718753233052043e-09
lhumerus -45.75584987072344 -14.529369743539242 98.77811022176088
lradius 111.97774003906228
lwrist 27.08161071025483
lhand -28.554974680098564 4.125976857598636
lfingers nan
lthumb -2.168620751276297 33.86961031299504
rclavicle 2.9947772173979493e-08 -8.520799993630327e-08
rhumerus -46.726973314159004 14.437923337299184 -99.78452313804033
rradius 103.93725902464911
rwrist -10.99836264796589
rhand -21.369925015522757 -8.881784189112644e-10
rfingers nan
rthumb 4.28888147571746 6.138191254903704
28
root 0.2237446421528135 18.09247613730646 -2.9613292311700867 4.431187509618891 -0.3817982391874116 -4.080649366624824
lfemur -28.64756584104433 5.607801788922215 -16.92554435333154
ltibia 88.59553031821227
lfoot 13.644346257854023 -13.88195422512275
ltoes -9.522685810945049
rfemur -5.155385985968936 3.747421835178904 32.272089719391744
rtibia 10.403088172678196
rfoot -9.556272348524388 -4.18903815229471
rtoes 10.301064162235157
lowerback -8.881784189112644e-10 1.2023934683490365 3.6872104516908726
upperback 0.5210253399119484 4.11042713800934 2.5929406037447773
thorax -9.21914099230897 1.6645718234855527 -1.5957587738600925
lowerneck -19.959639116981865 -4.006738920977092 -1.990700382179471
upperneck 7.011739240534482 -6.991902902742515 4.748597860583854
head 7.747307329397228 -3.069036030696147 1.04855211610666
lclavicle 1.0782042280184346e-08 -3.0566407179467455e-07
lhumerus -47.61653549666745 -13.618538481138668 98.69425871695978
lradius 110.51091719130939
lwrist 27.47839668721167
lhand -27.664858930765348 5.231972117120148
lfingers nan
lthumb -1.4077205558205859 34.70621450350072
rclavicle 9.191714985569494e-08 -3.340533170578048e-07
rhumerus -43.75991519485044 15.755261103841221 -100.73053338756407
rradius 104.6528104600906
rwrist -11.493834214186178
rhand -21.42864627088905 -8.881784189112644e-10
rfingers nan
rthumb 4.544587714651215 6.714636619447578
